<svg width="44" height="44" viewBox="0 0 44 44" fill="none" xmlns="http://www.w3.org/2000/svg">
<rect x="4.97821" y="-0.588806" width="40" height="40" rx="7" transform="rotate(8 4.97821 -0.588806)" fill="#FC6A00" fill-opacity="0.1"/>
<rect x="4" y="4" width="36" height="36" rx="7" fill="#FC6A00" fill-opacity="0.1"/>
<path d="M36.9384 22.4908L36.9376 22.4908C36.8718 22.4912 36.8065 22.4786 36.7456 22.4537C36.685 22.4289 36.6298 22.3925 36.5832 22.3464C36.583 22.3462 36.5828 22.346 36.5826 22.3458L22.2941 8.04736L21.9405 7.69344L21.5868 8.04736L7.31285 22.3313C7.21908 22.4065 7.10118 22.4455 6.9807 22.4409C6.85486 22.436 6.73549 22.3839 6.64645 22.2948C6.5574 22.2058 6.50523 22.0864 6.50037 21.9605C6.49572 21.84 6.53477 21.7221 6.61001 21.6283L21.593 6.6454C21.5931 6.64523 21.5933 6.64507 21.5934 6.64491C21.6871 6.55209 21.8136 6.5 21.9455 6.5C22.0774 6.5 22.2039 6.55213 22.2976 6.64502C22.2977 6.64515 22.2978 6.64527 22.298 6.6454L37.2934 21.6408C37.2939 21.6413 37.2944 21.6418 37.2949 21.6423C37.3629 21.7123 37.4089 21.8006 37.4273 21.8964C37.4459 21.9929 37.4356 22.0928 37.3977 22.1835C37.3598 22.2742 37.2961 22.3517 37.2144 22.4064C37.1327 22.461 37.0367 22.4904 36.9384 22.4908Z" fill="#FC6A00" fill-opacity="0.1" stroke="#FC6A00"/>
<path d="M18.9404 27.4908H18.4404V27.9908V37.4908H11.9404C11.5426 37.4908 11.1611 37.3327 10.8798 37.0514C10.5985 36.7701 10.4404 36.3886 10.4404 35.9908V24.0274L21.9415 12.488L33.4404 23.9582V35.9908C33.4404 36.3886 33.2824 36.7701 33.0011 37.0514C32.7198 37.3327 32.3383 37.4908 31.9404 37.4908H25.4404V27.9908V27.4908H24.9404H18.9404Z" fill="#FC6A00" stroke="#FC6A00"/>
</svg>
