<svg width="32" height="32" viewBox="0 0 32 32" fill="none" xmlns="http://www.w3.org/2000/svg">
<path d="M30.9384 16.4908L30.9376 16.4908C30.8718 16.4912 30.8065 16.4786 30.7456 16.4537C30.685 16.4289 30.6298 16.3925 30.5832 16.3464C30.583 16.3462 30.5828 16.346 30.5826 16.3458L16.2941 2.04736L15.9405 1.69344L15.5868 2.04736L1.31285 16.3313C1.21908 16.4065 1.10118 16.4455 0.980702 16.4409C0.854862 16.436 0.735493 16.3839 0.646447 16.2948C0.5574 16.2058 0.505234 16.0864 0.500373 15.9605C0.495719 15.84 0.534769 15.7221 0.610013 15.6283L15.593 0.645396C15.5931 0.645234 15.5933 0.645072 15.5934 0.64491C15.6871 0.552089 15.8136 0.5 15.9455 0.5C16.0774 0.5 16.2039 0.552131 16.2976 0.645023C16.2977 0.645148 16.2978 0.645272 16.298 0.645396L31.2934 15.6408C31.2939 15.6413 31.2944 15.6418 31.2949 15.6423C31.3629 15.7123 31.4089 15.8006 31.4273 15.8964C31.4459 15.9929 31.4356 16.0928 31.3977 16.1835C31.3598 16.2742 31.2961 16.3517 31.2144 16.4064C31.1327 16.461 31.0367 16.4904 30.9384 16.4908Z" fill="#FC6A00" fill-opacity="0.1" stroke="#FC6A00"/>
<path d="M12.9404 21.4908H12.4404V21.9908V31.4908H5.94043C5.5426 31.4908 5.16107 31.3327 4.87977 31.0514C4.59847 30.7701 4.44043 30.3886 4.44043 29.9908V18.0274L15.9415 6.48801L27.4404 17.9582V29.9908C27.4404 30.3886 27.2824 30.7701 27.0011 31.0514C26.7198 31.3327 26.3383 31.4908 25.9404 31.4908H19.4404V21.9908V21.4908H18.9404H12.9404Z" fill="#FC6A00" stroke="#FC6A00"/>
</svg>
