<svg width="116" height="46" viewBox="0 0 116 46" fill="none" xmlns="http://www.w3.org/2000/svg">
<rect x="5.97821" y="0.411194" width="40" height="40" rx="7" transform="rotate(8 5.97821 0.411194)" fill="#FC6A00" fill-opacity="0.1"/>
<rect x="5" y="5" width="36" height="36" rx="7" fill="#FC6A00" fill-opacity="0.1"/>
<path d="M37.9384 23.4908L37.9376 23.4908C37.8718 23.4912 37.8065 23.4786 37.7456 23.4537C37.685 23.4289 37.6298 23.3925 37.5832 23.3464C37.583 23.3462 37.5828 23.346 37.5826 23.3458L23.2941 9.04736L22.9405 8.69344L22.5868 9.04736L8.31285 23.3313C8.21908 23.4065 8.10118 23.4455 7.9807 23.4409C7.85486 23.436 7.73549 23.3839 7.64645 23.2948C7.5574 23.2058 7.50523 23.0864 7.50037 22.9605C7.49572 22.84 7.53477 22.7221 7.61001 22.6283L22.593 7.6454C22.5931 7.64523 22.5933 7.64507 22.5934 7.64491C22.6871 7.55209 22.8136 7.5 22.9455 7.5C23.0774 7.5 23.2039 7.55213 23.2976 7.64502C23.2977 7.64515 23.2978 7.64527 23.298 7.6454L38.2934 22.6408C38.2939 22.6413 38.2944 22.6418 38.2949 22.6423C38.3629 22.7123 38.4089 22.8006 38.4273 22.8964C38.4459 22.9929 38.4356 23.0928 38.3977 23.1835C38.3598 23.2742 38.2961 23.3517 38.2144 23.4064C38.1327 23.461 38.0367 23.4904 37.9384 23.4908Z" fill="#FC6A00" fill-opacity="0.1" stroke="#FC6A00"/>
<path d="M19.9404 28.4908H19.4404V28.9908V38.4908H12.9404C12.5426 38.4908 12.1611 38.3327 11.8798 38.0514C11.5985 37.7701 11.4404 37.3886 11.4404 36.9908V25.0274L22.9415 13.488L34.4404 24.9582V36.9908C34.4404 37.3886 34.2824 37.7701 34.0011 38.0514C33.7198 38.3327 33.3383 38.4908 32.9404 38.4908H26.4404V28.9908V28.4908H25.9404H19.9404Z" fill="#FC6A00" stroke="#FC6A00"/>
<path d="M46.8849 21V10.8182H50.902C51.6742 10.8182 52.3321 10.9657 52.8757 11.2607C53.4193 11.5523 53.8336 11.9583 54.1186 12.4787C54.407 12.9957 54.5511 13.5923 54.5511 14.2685C54.5511 14.9446 54.4053 15.5412 54.1136 16.0582C53.822 16.5753 53.3994 16.978 52.8459 17.2663C52.2957 17.5547 51.6295 17.6989 50.8473 17.6989H48.2869V15.9737H50.4993C50.9136 15.9737 51.255 15.9025 51.5234 15.7599C51.7952 15.6141 51.9974 15.4136 52.13 15.1584C52.2659 14.8999 52.3338 14.6032 52.3338 14.2685C52.3338 13.9304 52.2659 13.6354 52.13 13.3835C51.9974 13.1283 51.7952 12.9311 51.5234 12.7919C51.2517 12.6494 50.907 12.5781 50.4893 12.5781H49.0376V21H46.8849ZM57.3096 21V13.3636H59.3629V14.696H59.4424C59.5816 14.2221 59.8153 13.8641 60.1434 13.6222C60.4716 13.3769 60.8494 13.2543 61.277 13.2543C61.383 13.2543 61.4974 13.2609 61.62 13.2741C61.7426 13.2874 61.8503 13.3056 61.9431 13.3288V15.2081C61.8437 15.1783 61.7062 15.1518 61.5305 15.1286C61.3548 15.1054 61.1941 15.0938 61.0483 15.0938C60.7367 15.0938 60.4583 15.1617 60.213 15.2976C59.9711 15.4302 59.7788 15.6158 59.6363 15.8544C59.4971 16.093 59.4275 16.3681 59.4275 16.6797V21H57.3096ZM67.533 21.1491C66.7607 21.1491 66.0928 20.9851 65.5294 20.657C64.9693 20.3255 64.5367 19.8648 64.2318 19.2749C63.9269 18.6816 63.7744 17.9938 63.7744 17.2116C63.7744 16.4228 63.9269 15.7334 64.2318 15.1435C64.5367 14.5502 64.9693 14.0895 65.5294 13.7614C66.0928 13.4299 66.7607 13.2642 67.533 13.2642C68.3052 13.2642 68.9714 13.4299 69.5315 13.7614C70.095 14.0895 70.5292 14.5502 70.8341 15.1435C71.139 15.7334 71.2915 16.4228 71.2915 17.2116C71.2915 17.9938 71.139 18.6816 70.8341 19.2749C70.5292 19.8648 70.095 20.3255 69.5315 20.657C68.9714 20.9851 68.3052 21.1491 67.533 21.1491ZM67.5429 19.5085C67.8942 19.5085 68.1875 19.4091 68.4229 19.2102C68.6582 19.008 68.8355 18.733 68.9548 18.3849C69.0775 18.0369 69.1388 17.6409 69.1388 17.1967C69.1388 16.7526 69.0775 16.3565 68.9548 16.0085C68.8355 15.6605 68.6582 15.3854 68.4229 15.1832C68.1875 14.9811 67.8942 14.88 67.5429 14.88C67.1883 14.88 66.89 14.9811 66.648 15.1832C66.4094 15.3854 66.2287 15.6605 66.1061 16.0085C65.9868 16.3565 65.9271 16.7526 65.9271 17.1967C65.9271 17.6409 65.9868 18.0369 66.1061 18.3849C66.2287 18.733 66.4094 19.008 66.648 19.2102C66.89 19.4091 67.1883 19.5085 67.5429 19.5085ZM74.0686 23.8636V13.3636H76.1567V14.6463H76.2511C76.3439 14.4408 76.4782 14.232 76.6538 14.0199C76.8328 13.8045 77.0648 13.6255 77.3499 13.483C77.6382 13.3371 77.9962 13.2642 78.4237 13.2642C78.9805 13.2642 79.4943 13.41 79.9649 13.7017C80.4356 13.9901 80.8117 14.4259 81.0935 15.0092C81.3752 15.5893 81.5161 16.3168 81.5161 17.1918C81.5161 18.0436 81.3785 18.7628 81.1034 19.3494C80.8316 19.9328 80.4604 20.3752 79.9898 20.6768C79.5224 20.9751 78.9988 21.1243 78.4188 21.1243C78.0078 21.1243 77.6581 21.0563 77.3697 20.9205C77.0847 20.7846 76.851 20.6139 76.6688 20.4084C76.4865 20.1996 76.3473 19.9891 76.2511 19.777H76.1865V23.8636H74.0686ZM76.1418 17.1818C76.1418 17.6359 76.2047 18.032 76.3307 18.37C76.4566 18.7081 76.6389 18.9716 76.8776 19.1605C77.1162 19.3461 77.4062 19.4389 77.7476 19.4389C78.0923 19.4389 78.3839 19.3445 78.6226 19.1555C78.8612 18.9633 79.0419 18.6982 79.1645 18.3601C79.2904 18.0187 79.3534 17.6259 79.3534 17.1818C79.3534 16.741 79.2921 16.3532 79.1695 16.0185C79.0468 15.6837 78.8662 15.4219 78.6276 15.233C78.3889 15.044 78.0956 14.9496 77.7476 14.9496C77.4029 14.9496 77.1112 15.0407 76.8726 15.223C76.6373 15.4053 76.4566 15.6638 76.3307 15.9986C76.2047 16.3333 76.1418 16.7277 76.1418 17.1818ZM87.8081 21.1491C87.0226 21.1491 86.3464 20.9901 85.7797 20.6719C85.2162 20.3504 84.7821 19.8963 84.4771 19.3097C84.1722 18.7197 84.0197 18.022 84.0197 17.2166C84.0197 16.4311 84.1722 15.7417 84.4771 15.1484C84.7821 14.5552 85.2113 14.0928 85.7648 13.7614C86.3216 13.4299 86.9745 13.2642 87.7236 13.2642C88.2274 13.2642 88.6964 13.3454 89.1305 13.5078C89.568 13.6669 89.9492 13.9072 90.274 14.2287C90.6021 14.5502 90.8573 14.9545 91.0396 15.4418C91.2219 15.9257 91.3131 16.4924 91.3131 17.142V17.7237H84.8649V16.4112H89.3195C89.3195 16.1063 89.2532 15.8362 89.1206 15.6009C88.988 15.3655 88.8041 15.1816 88.5687 15.049C88.3367 14.9131 88.0666 14.8452 87.7584 14.8452C87.4369 14.8452 87.1518 14.9197 86.9033 15.0689C86.658 15.2147 86.4658 15.4119 86.3266 15.6605C86.1874 15.9058 86.1161 16.1792 86.1128 16.4808V17.7287C86.1128 18.1065 86.1824 18.433 86.3216 18.7081C86.4641 18.9832 86.6646 19.1953 86.9232 19.3445C87.1817 19.4936 87.4883 19.5682 87.8429 19.5682C88.0782 19.5682 88.2937 19.535 88.4892 19.4688C88.6848 19.4025 88.8521 19.303 88.9913 19.1705C89.1305 19.0379 89.2366 18.8755 89.3095 18.6832L91.2683 18.8125C91.1689 19.2831 90.9651 19.6941 90.6568 20.0455C90.3519 20.3935 89.9575 20.6652 89.4736 20.8608C88.993 21.053 88.4378 21.1491 87.8081 21.1491ZM94.0952 21V13.3636H96.1484V14.696H96.228C96.3672 14.2221 96.6009 13.8641 96.929 13.6222C97.2571 13.3769 97.6349 13.2543 98.0625 13.2543C98.1686 13.2543 98.2829 13.2609 98.4055 13.2741C98.5282 13.2874 98.6359 13.3056 98.7287 13.3288V15.2081C98.6293 15.1783 98.4917 15.1518 98.3161 15.1286C98.1404 15.1054 97.9796 15.0938 97.8338 15.0938C97.5223 15.0938 97.2438 15.1617 96.9986 15.2976C96.7566 15.4302 96.5644 15.6158 96.4219 15.8544C96.2827 16.093 96.2131 16.3681 96.2131 16.6797V21H94.0952ZM105.668 13.3636V14.9545H101.07V13.3636H105.668ZM102.114 11.5341H104.232V18.6534C104.232 18.849 104.261 19.0014 104.321 19.1108C104.381 19.2169 104.464 19.2914 104.57 19.3345C104.679 19.3776 104.805 19.3991 104.947 19.3991C105.047 19.3991 105.146 19.3909 105.246 19.3743C105.345 19.3544 105.421 19.3395 105.474 19.3295L105.807 20.9055C105.701 20.9387 105.552 20.9768 105.36 21.0199C105.168 21.0663 104.934 21.0945 104.659 21.1044C104.149 21.1243 103.701 21.0563 103.317 20.9006C102.936 20.7448 102.639 20.5028 102.427 20.1747C102.215 19.8466 102.11 19.4323 102.114 18.9318V11.5341ZM109.755 23.8636C109.487 23.8636 109.235 23.8421 109 23.799C108.768 23.7592 108.576 23.7079 108.423 23.6449L108.9 22.0639C109.149 22.1402 109.373 22.1816 109.571 22.1882C109.774 22.1948 109.948 22.1484 110.094 22.049C110.243 21.9496 110.364 21.7805 110.456 21.5419L110.581 21.2188L107.841 13.3636H110.069L111.65 18.9716H111.729L113.325 13.3636H115.567L112.599 21.8253C112.457 22.2363 112.263 22.5942 112.018 22.8991C111.776 23.2074 111.469 23.4444 111.098 23.6101C110.727 23.7791 110.279 23.8636 109.755 23.8636Z" fill="#FC6A00"/>
<path d="M49.1768 39L46.2635 28.8182H48.6151L50.3004 35.8928H50.3849L52.2443 28.8182H54.2578L56.1122 35.9077H56.2017L57.8871 28.8182H60.2386L57.3253 39H55.2273L53.2884 32.343H53.2088L51.2749 39H49.1768ZM64.8083 39.1442C64.3211 39.1442 63.8869 39.0597 63.5057 38.8906C63.1246 38.7183 62.823 38.4647 62.6009 38.13C62.3821 37.7919 62.2728 37.371 62.2728 36.8672C62.2728 36.4429 62.3507 36.0866 62.5064 35.7983C62.6622 35.5099 62.8743 35.2779 63.1428 35.1023C63.4113 34.9266 63.7162 34.794 64.0576 34.7045C64.4023 34.6151 64.7635 34.5521 65.1414 34.5156C65.5855 34.4692 65.9435 34.4261 66.2152 34.3864C66.487 34.3433 66.6842 34.2803 66.8069 34.1974C66.9295 34.1146 66.9908 33.992 66.9908 33.8295V33.7997C66.9908 33.4848 66.8914 33.2412 66.6925 33.0689C66.497 32.8965 66.2185 32.8104 65.8573 32.8104C65.4761 32.8104 65.1729 32.8949 64.9475 33.0639C64.7221 33.2296 64.573 33.4384 64.5 33.6903L62.5412 33.5312C62.6407 33.0672 62.8362 32.6662 63.1279 32.3281C63.4195 31.9867 63.7957 31.7249 64.2564 31.5426C64.7204 31.357 65.2574 31.2642 65.8672 31.2642C66.2915 31.2642 66.6975 31.3139 67.0853 31.4134C67.4764 31.5128 67.8227 31.6669 68.1243 31.8757C68.4293 32.0845 68.6695 32.353 68.8452 32.6811C69.0209 33.0059 69.1087 33.3954 69.1087 33.8494V39H67.1002V37.9411H67.0405C66.9179 38.1797 66.7538 38.3902 66.5483 38.5724C66.3428 38.7514 66.0959 38.8923 65.8076 38.995C65.5192 39.0945 65.1861 39.1442 64.8083 39.1442ZM65.4148 37.6825C65.7264 37.6825 66.0015 37.6212 66.2401 37.4986C66.4787 37.3726 66.666 37.2036 66.8019 36.9915C66.9378 36.7794 67.0057 36.5391 67.0057 36.2706V35.4602C66.9394 35.5033 66.8483 35.5431 66.7323 35.5795C66.6196 35.6127 66.492 35.6442 66.3495 35.674C66.2069 35.7005 66.0644 35.7254 65.9219 35.7486C65.7794 35.7685 65.6501 35.7867 65.5341 35.8033C65.2855 35.8397 65.0685 35.8977 64.8828 35.9773C64.6972 36.0568 64.5531 36.1645 64.4503 36.3004C64.3476 36.433 64.2962 36.5987 64.2962 36.7976C64.2962 37.0859 64.4006 37.3063 64.6094 37.4588C64.8215 37.608 65.09 37.6825 65.4148 37.6825ZM74.9697 28.8182V39H72.8518V28.8182H74.9697ZM80.8842 28.8182V39H78.7663V28.8182H80.8842ZM86.8583 39.1442C86.3711 39.1442 85.9369 39.0597 85.5557 38.8906C85.1746 38.7183 84.873 38.4647 84.6509 38.13C84.4321 37.7919 84.3228 37.371 84.3228 36.8672C84.3228 36.4429 84.4007 36.0866 84.5564 35.7983C84.7122 35.5099 84.9243 35.2779 85.1928 35.1023C85.4613 34.9266 85.7662 34.794 86.1076 34.7045C86.4523 34.6151 86.8135 34.5521 87.1914 34.5156C87.6355 34.4692 87.9935 34.4261 88.2652 34.3864C88.537 34.3433 88.7342 34.2803 88.8569 34.1974C88.9795 34.1146 89.0408 33.992 89.0408 33.8295V33.7997C89.0408 33.4848 88.9414 33.2412 88.7425 33.0689C88.547 32.8965 88.2686 32.8104 87.9073 32.8104C87.5261 32.8104 87.2229 32.8949 86.9975 33.0639C86.7721 33.2296 86.623 33.4384 86.55 33.6903L84.5912 33.5312C84.6907 33.0672 84.8862 32.6662 85.1779 32.3281C85.4695 31.9867 85.8457 31.7249 86.3064 31.5426C86.7704 31.357 87.3074 31.2642 87.9172 31.2642C88.3415 31.2642 88.7475 31.3139 89.1353 31.4134C89.5264 31.5128 89.8727 31.6669 90.1743 31.8757C90.4793 32.0845 90.7195 32.353 90.8952 32.6811C91.0709 33.0059 91.1587 33.3954 91.1587 33.8494V39H89.1502V37.9411H89.0905C88.9679 38.1797 88.8038 38.3902 88.5983 38.5724C88.3928 38.7514 88.1459 38.8923 87.8576 38.995C87.5692 39.0945 87.2361 39.1442 86.8583 39.1442ZM87.4648 37.6825C87.7764 37.6825 88.0515 37.6212 88.2901 37.4986C88.5287 37.3726 88.716 37.2036 88.8519 36.9915C88.9878 36.7794 89.0557 36.5391 89.0557 36.2706V35.4602C88.9894 35.5033 88.8983 35.5431 88.7823 35.5795C88.6696 35.6127 88.542 35.6442 88.3995 35.674C88.257 35.7005 88.1144 35.7254 87.9719 35.7486C87.8294 35.7685 87.7001 35.7867 87.5841 35.8033C87.3355 35.8397 87.1185 35.8977 86.9328 35.9773C86.7472 36.0568 86.6031 36.1645 86.5003 36.3004C86.3976 36.433 86.3462 36.5987 86.3462 36.7976C86.3462 37.0859 86.4506 37.3063 86.6594 37.4588C86.8715 37.608 87.14 37.6825 87.4648 37.6825ZM97.0197 34.5852V39H94.9018V28.8182H96.96V32.7109H97.0495C97.2219 32.2602 97.5003 31.9072 97.8848 31.652C98.2692 31.3935 98.7515 31.2642 99.3315 31.2642C99.8618 31.2642 100.324 31.3802 100.719 31.6122C101.116 31.8409 101.425 32.1707 101.643 32.6016C101.865 33.0291 101.975 33.5412 101.971 34.1378V39H99.8535V34.5156C99.8568 34.045 99.7375 33.6787 99.4956 33.4169C99.2569 33.1551 98.9222 33.0241 98.4913 33.0241C98.2029 33.0241 97.9477 33.0855 97.7257 33.2081C97.5069 33.3307 97.3346 33.5097 97.2086 33.745C97.086 33.977 97.023 34.2571 97.0197 34.5852Z" fill="#FC6A00"/>
</svg>
