<svg width="116" height="46" viewBox="0 0 116 46" fill="none" xmlns="http://www.w3.org/2000/svg">
<rect x="5.56689" width="40" height="40" rx="7" transform="rotate(8 5.56689 0)" fill="white" fill-opacity="0.2"/>
<rect x="4.58868" y="4.58881" width="36" height="36" rx="7" fill="white" fill-opacity="0.3"/>
<path d="M37.5271 23.0796L37.5262 23.0796C37.4604 23.08 37.3952 23.0674 37.3343 23.0425C37.2737 23.0177 37.2185 22.9813 37.1719 22.9352C37.1717 22.935 37.1715 22.9348 37.1713 22.9346L22.8828 8.63617L22.5291 8.28224L22.1755 8.63617L7.90153 22.9201C7.80777 22.9953 7.68986 23.0343 7.56939 23.0297C7.44355 23.0248 7.32418 22.9727 7.23513 22.8836C7.14608 22.7946 7.09392 22.6752 7.08906 22.5494C7.0844 22.4289 7.12345 22.3109 7.1987 22.2171L22.1816 7.2342C22.1818 7.23404 22.182 7.23388 22.1821 7.23372C22.2758 7.1409 22.4023 7.08881 22.5341 7.08881C22.6661 7.08881 22.7926 7.14094 22.8863 7.23383C22.8864 7.23395 22.8865 7.23408 22.8866 7.2342L37.8821 22.2296C37.8826 22.2301 37.8831 22.2306 37.8836 22.2311C37.9515 22.3011 37.9976 22.3894 38.016 22.4852C38.0346 22.5818 38.0243 22.6816 37.9864 22.7723C37.9485 22.863 37.8847 22.9405 37.803 22.9952C37.7213 23.0498 37.6254 23.0792 37.5271 23.0796Z" fill="white" fill-opacity="0.1" stroke="white"/>
<path d="M19.5291 28.0796H19.0291V28.5796V38.0796H12.5291C12.1313 38.0796 11.7498 37.9215 11.4685 37.6402C11.1871 37.3589 11.0291 36.9774 11.0291 36.5796V24.6162L22.5301 13.0768L34.0291 24.547V36.5796C34.0291 36.9774 33.8711 37.3589 33.5898 37.6402C33.3085 37.9215 32.9269 38.0796 32.5291 38.0796H26.0291V28.5796V28.0796H25.5291H19.5291Z" fill="white" stroke="white"/>
<path d="M46.4736 20.5888V10.407H50.4907C51.2629 10.407 51.9208 10.5545 52.4644 10.8495C53.008 11.1411 53.4223 11.5471 53.7073 12.0675C53.9956 12.5845 54.1398 13.1811 54.1398 13.8573C54.1398 14.5334 53.994 15.13 53.7023 15.647C53.4107 16.1641 52.9881 16.5668 52.4346 16.8551C51.8844 17.1435 51.2182 17.2877 50.436 17.2877H47.8756V15.5625H50.088C50.5023 15.5625 50.8437 15.4913 51.1121 15.3487C51.3839 15.2029 51.5861 15.0024 51.7187 14.7472C51.8545 14.4887 51.9225 14.192 51.9225 13.8573C51.9225 13.5192 51.8545 13.2242 51.7187 12.9723C51.5861 12.7171 51.3839 12.5199 51.1121 12.3807C50.8403 12.2382 50.4956 12.1669 50.078 12.1669H48.6263V20.5888H46.4736ZM56.8983 20.5888V12.9524H58.9516V14.2848H59.0311C59.1703 13.8109 59.404 13.4529 59.7321 13.211C60.0602 12.9657 60.4381 12.8431 60.8656 12.8431C60.9717 12.8431 61.086 12.8497 61.2087 12.863C61.3313 12.8762 61.439 12.8944 61.5318 12.9176V14.7969C61.4324 14.7671 61.2949 14.7406 61.1192 14.7174C60.9435 14.6942 60.7828 14.6826 60.6369 14.6826C60.3254 14.6826 60.047 14.7505 59.8017 14.8864C59.5598 15.019 59.3675 15.2046 59.225 15.4432C59.0858 15.6818 59.0162 15.9569 59.0162 16.2685V20.5888H56.8983ZM67.1216 20.738C66.3494 20.738 65.6815 20.5739 65.1181 20.2458C64.558 19.9143 64.1254 19.4536 63.8205 18.8637C63.5156 18.2704 63.3631 17.5827 63.3631 16.8005C63.3631 16.0116 63.5156 15.3222 63.8205 14.7323C64.1254 14.139 64.558 13.6783 65.1181 13.3502C65.6815 13.0187 66.3494 12.853 67.1216 12.853C67.8939 12.853 68.5601 13.0187 69.1202 13.3502C69.6837 13.6783 70.1178 14.139 70.4228 14.7323C70.7277 15.3222 70.8802 16.0116 70.8802 16.8005C70.8802 17.5827 70.7277 18.2704 70.4228 18.8637C70.1178 19.4536 69.6837 19.9143 69.1202 20.2458C68.5601 20.5739 67.8939 20.738 67.1216 20.738ZM67.1316 19.0973C67.4829 19.0973 67.7762 18.9979 68.0116 18.799C68.2469 18.5969 68.4242 18.3218 68.5435 17.9737C68.6661 17.6257 68.7275 17.2297 68.7275 16.7855C68.7275 16.3414 68.6661 15.9453 68.5435 15.5973C68.4242 15.2493 68.2469 14.9742 68.0116 14.772C67.7762 14.5699 67.4829 14.4688 67.1316 14.4688C66.7769 14.4688 66.4786 14.5699 66.2367 14.772C65.9981 14.9742 65.8174 15.2493 65.6948 15.5973C65.5755 15.9453 65.5158 16.3414 65.5158 16.7855C65.5158 17.2297 65.5755 17.6257 65.6948 17.9737C65.8174 18.3218 65.9981 18.5969 66.2367 18.799C66.4786 18.9979 66.7769 19.0973 67.1316 19.0973ZM73.6573 23.4524V12.9524H75.7454V14.2351H75.8398C75.9326 14.0296 76.0669 13.8208 76.2425 13.6087C76.4215 13.3933 76.6535 13.2143 76.9385 13.0718C77.2269 12.9259 77.5848 12.853 78.0124 12.853C78.5692 12.853 79.083 12.9988 79.5536 13.2905C80.0242 13.5789 80.4004 14.0147 80.6822 14.598C80.9639 15.1781 81.1047 15.9056 81.1047 16.7806C81.1047 17.6324 80.9672 18.3516 80.6921 18.9382C80.4203 19.5216 80.0491 19.964 79.5785 20.2657C79.1111 20.5639 78.5875 20.7131 78.0074 20.7131C77.5964 20.7131 77.2468 20.6452 76.9584 20.5093C76.6734 20.3734 76.4397 20.2027 76.2574 19.9972C76.0751 19.7884 75.9359 19.5779 75.8398 19.3658H75.7752V23.4524H73.6573ZM75.7304 16.7706C75.7304 17.2247 75.7934 17.6208 75.9194 17.9588C76.0453 18.2969 76.2276 18.5604 76.4662 18.7493C76.7049 18.9349 76.9949 19.0277 77.3363 19.0277C77.681 19.0277 77.9726 18.9333 78.2113 18.7443C78.4499 18.5521 78.6305 18.287 78.7532 17.9489C78.8791 17.6075 78.9421 17.2148 78.9421 16.7706C78.9421 16.3298 78.8808 15.942 78.7581 15.6073C78.6355 15.2725 78.4549 15.0107 78.2162 14.8218C77.9776 14.6328 77.6843 14.5384 77.3363 14.5384C76.9916 14.5384 76.6999 14.6295 76.4613 14.8118C76.2259 14.9941 76.0453 15.2526 75.9194 15.5874C75.7934 15.9221 75.7304 16.3166 75.7304 16.7706ZM87.3968 20.738C86.6113 20.738 85.9351 20.5789 85.3684 20.2607C84.8049 19.9392 84.3707 19.4851 84.0658 18.8985C83.7609 18.3085 83.6084 17.6108 83.6084 16.8054C83.6084 16.0199 83.7609 15.3305 84.0658 14.7372C84.3707 14.144 84.8 13.6816 85.3535 13.3502C85.9103 13.0187 86.5632 12.853 87.3123 12.853C87.8161 12.853 88.285 12.9342 88.7192 13.0966C89.1567 13.2557 89.5379 13.496 89.8627 13.8175C90.1908 14.139 90.446 14.5434 90.6283 15.0306C90.8106 15.5145 90.9018 16.0812 90.9018 16.7309V17.3125H84.4536V16H88.9081C88.9081 15.6951 88.8419 15.425 88.7093 15.1897C88.5767 14.9543 88.3928 14.7704 88.1574 14.6378C87.9254 14.5019 87.6553 14.434 87.3471 14.434C87.0256 14.434 86.7405 14.5086 86.4919 14.6577C86.2467 14.8035 86.0544 15.0007 85.9152 15.2493C85.776 15.4946 85.7048 15.768 85.7015 16.0696V17.3175C85.7015 17.6953 85.7711 18.0218 85.9103 18.2969C86.0528 18.572 86.2533 18.7841 86.5118 18.9333C86.7704 19.0824 87.0769 19.157 87.4316 19.157C87.6669 19.157 87.8823 19.1238 88.0779 19.0576C88.2734 18.9913 88.4408 18.8918 88.58 18.7593C88.7192 18.6267 88.8253 18.4643 88.8982 18.272L90.857 18.4013C90.7576 18.872 90.5537 19.2829 90.2455 19.6343C89.9406 19.9823 89.5462 20.2541 89.0623 20.4496C88.5817 20.6418 88.0265 20.738 87.3968 20.738ZM93.6839 20.5888V12.9524H95.7371V14.2848H95.8167C95.9559 13.8109 96.1895 13.4529 96.5177 13.211C96.8458 12.9657 97.2236 12.8431 97.6512 12.8431C97.7572 12.8431 97.8716 12.8497 97.9942 12.863C98.1169 12.8762 98.2246 12.8944 98.3174 12.9176V14.7969C98.2179 14.7671 98.0804 14.7406 97.9047 14.7174C97.7291 14.6942 97.5683 14.6826 97.4225 14.6826C97.1109 14.6826 96.8325 14.7505 96.5873 14.8864C96.3453 15.019 96.1531 15.2046 96.0106 15.4432C95.8714 15.6818 95.8018 15.9569 95.8018 16.2685V20.5888H93.6839ZM105.257 12.9524V14.5434H100.658V12.9524H105.257ZM101.702 11.1229H103.82V18.2422C103.82 18.4378 103.85 18.5902 103.91 18.6996C103.969 18.8057 104.052 18.8802 104.158 18.9233C104.268 18.9664 104.394 18.988 104.536 18.988C104.636 18.988 104.735 18.9797 104.834 18.9631C104.934 18.9432 105.01 18.9283 105.063 18.9184L105.396 20.4943C105.29 20.5275 105.141 20.5656 104.949 20.6087C104.757 20.6551 104.523 20.6833 104.248 20.6932C103.737 20.7131 103.29 20.6452 102.905 20.4894C102.524 20.3336 102.228 20.0916 102.015 19.7635C101.803 19.4354 101.699 19.0211 101.702 18.5206V11.1229ZM109.344 23.4524C109.076 23.4524 108.824 23.4309 108.588 23.3878C108.356 23.348 108.164 23.2967 108.012 23.2337L108.489 21.6527C108.738 21.729 108.961 21.7704 109.16 21.777C109.362 21.7836 109.536 21.7372 109.682 21.6378C109.831 21.5384 109.952 21.3693 110.045 21.1307L110.169 20.8076L107.43 12.9524H109.657L111.238 18.5604H111.318L112.914 12.9524H115.156L112.188 21.4141C112.045 21.8251 111.851 22.183 111.606 22.488C111.364 22.7962 111.058 23.0332 110.686 23.1989C110.315 23.3679 109.868 23.4524 109.344 23.4524Z" fill="white"/>
<path d="M48.7655 38.5888L45.8522 28.407H48.2037L49.8891 35.4816H49.9736L51.833 28.407H53.8465L55.7009 35.4965H55.7904L57.4758 28.407H59.8273L56.914 38.5888H54.816L52.877 31.9318H52.7975L50.8635 38.5888H48.7655ZM64.397 38.733C63.9097 38.733 63.4756 38.6485 63.0944 38.4794C62.7132 38.3071 62.4116 38.0535 62.1896 37.7188C61.9708 37.3807 61.8614 36.9598 61.8614 36.456C61.8614 36.0318 61.9393 35.6755 62.0951 35.3871C62.2509 35.0987 62.463 34.8667 62.7315 34.6911C62.9999 34.5154 63.3049 34.3828 63.6462 34.2934C63.9909 34.2039 64.3522 34.1409 64.7301 34.1044C65.1742 34.058 65.5321 34.0149 65.8039 33.9752C66.0757 33.9321 66.2729 33.8691 66.3955 33.7862C66.5182 33.7034 66.5795 33.5808 66.5795 33.4184V33.3885C66.5795 33.0737 66.4801 32.83 66.2812 32.6577C66.0856 32.4853 65.8072 32.3992 65.446 32.3992C65.0648 32.3992 64.7615 32.4837 64.5362 32.6527C64.3108 32.8184 64.1616 33.0273 64.0887 33.2791L62.1299 33.1201C62.2293 32.656 62.4249 32.255 62.7166 31.9169C63.0082 31.5755 63.3844 31.3137 63.8451 31.1314C64.3091 30.9458 64.8461 30.853 65.4559 30.853C65.8802 30.853 66.2862 30.9027 66.6739 31.0022C67.065 31.1016 67.4114 31.2557 67.713 31.4645C68.0179 31.6733 68.2582 31.9418 68.4339 32.2699C68.6096 32.5947 68.6974 32.9842 68.6974 33.4382V38.5888H66.6889V37.5299H66.6292C66.5066 37.7685 66.3425 37.979 66.137 38.1612C65.9315 38.3402 65.6846 38.4811 65.3962 38.5838C65.1079 38.6833 64.7748 38.733 64.397 38.733ZM65.0035 37.2713C65.315 37.2713 65.5901 37.21 65.8288 37.0874C66.0674 36.9614 66.2547 36.7924 66.3906 36.5803C66.5265 36.3682 66.5944 36.1279 66.5944 35.8594V35.049C66.5281 35.0921 66.437 35.1319 66.321 35.1684C66.2083 35.2015 66.0807 35.233 65.9382 35.2628C65.7956 35.2893 65.6531 35.3142 65.5106 35.3374C65.3681 35.3573 65.2388 35.3755 65.1228 35.3921C64.8742 35.4285 64.6571 35.4865 64.4715 35.5661C64.2859 35.6456 64.1418 35.7533 64.039 35.8892C63.9363 36.0218 63.8849 36.1875 63.8849 36.3864C63.8849 36.6747 63.9893 36.8952 64.1981 37.0476C64.4102 37.1968 64.6787 37.2713 65.0035 37.2713ZM74.5584 28.407V38.5888H72.4405V28.407H74.5584ZM80.4728 28.407V38.5888H78.3549V28.407H80.4728ZM86.447 38.733C85.9597 38.733 85.5256 38.6485 85.1444 38.4794C84.7632 38.3071 84.4616 38.0535 84.2396 37.7188C84.0208 37.3807 83.9114 36.9598 83.9114 36.456C83.9114 36.0318 83.9893 35.6755 84.1451 35.3871C84.3009 35.0987 84.513 34.8667 84.7815 34.6911C85.0499 34.5154 85.3549 34.3828 85.6962 34.2934C86.0409 34.2039 86.4022 34.1409 86.7801 34.1044C87.2242 34.058 87.5821 34.0149 87.8539 33.9752C88.1257 33.9321 88.3229 33.8691 88.4455 33.7862C88.5682 33.7034 88.6295 33.5808 88.6295 33.4184V33.3885C88.6295 33.0737 88.5301 32.83 88.3312 32.6577C88.1356 32.4853 87.8572 32.3992 87.496 32.3992C87.1148 32.3992 86.8115 32.4837 86.5862 32.6527C86.3608 32.8184 86.2116 33.0273 86.1387 33.2791L84.1799 33.1201C84.2793 32.656 84.4749 32.255 84.7666 31.9169C85.0582 31.5755 85.4344 31.3137 85.8951 31.1314C86.3591 30.9458 86.8961 30.853 87.5059 30.853C87.9302 30.853 88.3362 30.9027 88.7239 31.0022C89.115 31.1016 89.4614 31.2557 89.763 31.4645C90.0679 31.6733 90.3082 31.9418 90.4839 32.2699C90.6596 32.5947 90.7474 32.9842 90.7474 33.4382V38.5888H88.7389V37.5299H88.6792C88.5566 37.7685 88.3925 37.979 88.187 38.1612C87.9815 38.3402 87.7346 38.4811 87.4462 38.5838C87.1579 38.6833 86.8248 38.733 86.447 38.733ZM87.0535 37.2713C87.365 37.2713 87.6401 37.21 87.8788 37.0874C88.1174 36.9614 88.3047 36.7924 88.4406 36.5803C88.5765 36.3682 88.6444 36.1279 88.6444 35.8594V35.049C88.5781 35.0921 88.487 35.1319 88.371 35.1684C88.2583 35.2015 88.1307 35.233 87.9882 35.2628C87.8456 35.2893 87.7031 35.3142 87.5606 35.3374C87.4181 35.3573 87.2888 35.3755 87.1728 35.3921C86.9242 35.4285 86.7071 35.4865 86.5215 35.5661C86.3359 35.6456 86.1918 35.7533 86.089 35.8892C85.9863 36.0218 85.9349 36.1875 85.9349 36.3864C85.9349 36.6747 86.0393 36.8952 86.2481 37.0476C86.4602 37.1968 86.7287 37.2713 87.0535 37.2713ZM96.6084 34.174V38.5888H94.4905V28.407H96.5487V32.2997H96.6382C96.8106 31.849 97.089 31.496 97.4734 31.2408C97.8579 30.9823 98.3402 30.853 98.9202 30.853C99.4505 30.853 99.9128 30.969 100.307 31.201C100.705 31.4297 101.013 31.7595 101.232 32.1904C101.454 32.6179 101.563 33.13 101.56 33.7266V38.5888H99.4422V34.1044C99.4455 33.6338 99.3262 33.2675 99.0842 33.0057C98.8456 32.7439 98.5109 32.613 98.08 32.613C97.7916 32.613 97.5364 32.6743 97.3144 32.7969C97.0956 32.9195 96.9233 33.0985 96.7973 33.3338C96.6747 33.5658 96.6117 33.8459 96.6084 34.174Z" fill="white"/>
</svg>
